<svg version="1.1" xmlns="http://www.w3.org/2000/svg" xmlns:xlink="http://www.w3.org/1999/xlink" width="107.91892" height="140.65468" viewBox="0,0,107.91892,140.65468"><g transform="translate(-186.22502,-109.65127)"><g data-paper-data="{&quot;isPaintingLayer&quot;:true}" fill-rule="nonzero" stroke-linejoin="miter" stroke-miterlimit="10" stroke-dasharray="" stroke-dashoffset="0" style="mix-blend-mode: normal"><path d="M239.5007,232.3761l-1.2069,13.5642c0,0 5.9851,0.9546 6.1046,3.0047c0.1212,2.0519 -13.6459,0 -13.6459,0l2.6374,-17.0412" fill="#f05a28" stroke="#000000" stroke-width="0.898" stroke-linecap="round"/><path d="M249.4711,216.5481c0,0 9.0132,4.3131 6.8122,8.9835c-1.1818,2.5153 -5.4652,1.1405 -6.7825,0.5155c-1.9119,-0.9106 -2.4659,-1.0731 -3.7204,-2.8305c-1.2536,-1.752 -5.934,-8.1573 -6.9218,-10.8585c-1.5427,-4.2412 -2.3922,-12.2244 4.5313,-4.164c0,0 3.4286,4.8321 5.7984,8.0227l0.2828,0.3313v0v0z" fill="#f05a28" stroke="#000000" stroke-width="0.898" stroke-linecap="round"/><path d="M248.9575,218.53v0v0l0.0081,0.2362c0.4157,1.3685 0.7471,3.098 0.6088,4.8797c-0.7157,9.3364 -11.3156,9.5798 -11.3156,9.5798c-13.8354,0 -11.427,-8.9414 -10.1976,-12.3771c0.7821,-2.1947 3.0639,-9.3328 3.0639,-9.3328c0,0 1.4207,-6.3596 2.0726,-8.4295c0.7597,-2.4111 4.2125,-4.7477 9.8142,-4.1721c9.8887,1.0139 7.3716,7.791 7.3716,7.791c-0.2335,1.6362 -1.6209,10.2722 -1.426,11.8248z" fill="#f05a28" stroke="#000000" stroke-width="0.898" stroke-linecap="round"/><path d="M235.3008,213.943c0,0 -4.3095,2.8485 -6.1135,5.679c-2.2441,3.5165 -3.4268,7.7173 -5.7786,7.7523c-1.6092,0.0216 -5.2694,-0.3071 -1.8239,-9.4199c2.774,-7.3402 11.674,-12.4453 15.9915,-13.2786" fill="#f05a28" stroke="#000000" stroke-width="0.898" stroke-linecap="round"/><path d="M245.3475,228.6396l4.1586,4.1532c0,0 1.1019,0.8944 0.907,2.1516c-0.1913,1.2554 -2.9131,7.9877 -2.9131,7.9877c0,0 5.1967,0.3493 5.1841,1.8696c-0.0071,1.5203 -10.8585,0.3493 -10.8585,0.3493l1.8822,-9.3041l-4.005,-5.5352" fill="#f05a28" stroke="#000000" stroke-width="0.898" stroke-linecap="round"/><g><path d="M203.8163,145.6794c0,0 0.8351,-3.4231 7.9418,-10.6987c7.1031,-7.2719 14.7927,-9.7764 19.8924,-11.867c5.0988,-2.0905 8.5228,-12.5359 8.5228,-12.5359c0,0 4.6956,5.8405 9.5223,11.1512c4.9246,5.4158 16.392,10.1617 28.6801,22.5307c1.4664,1.4808 2.7129,3.0307 3.7608,4.6211l0.2119,0.1849c2.7452,2.3806 12.4777,11.8787 11.2303,25.7051c-0.9536,10.5335 -5.7435,13.8623 -8.0639,14.7585l-0.0189,0.0772c1.1961,-2.3698 1.9082,-4.8841 2.245,-7.4362c1.1081,-8.443 -3.4393,-13.9297 -6.356,-21.2726c-3.7814,-9.5223 -14.1254,-14.8797 -27.5199,-14.613c-25.4922,0.5046 -31.1065,14.8357 -31.1065,14.8357l-0.0188,0.185c4.7297,8.7815 6.6173,28.2625 -3.0658,34.0923c-10.4293,6.2698 -25.8739,4.0814 -31.8886,-20.1483c-5.5047,-22.1741 10.9797,-29.1614 15.8289,-29.1039l0.2021,-0.4661v0v0zM282.1356,148.8808c0,0 6.6874,10.6259 4.5106,23.7564M203.6133,146.1446c4.6893,0.1275 7.8323,3.4842 7.8323,3.4842M222.7388,161.3036c-0.7894,-1.2312 -1.3398,-2.245 -1.3398,-2.245" fill="#f05a28" stroke="#000000" stroke-width="0.898" stroke-linecap="round"/><path d="M286.9587,186.0002c0,0 2.1121,-3.829 3.5363,-10.8469c1.4225,-7.0223 -0.475,-16.5706 -0.475,-16.5706c2.3572,4.2753 4.1424,9.7621 3.5659,16.1872c-0.9222,10.265 -5.6879,13.7644 -8.0657,14.7585l1.4385,-3.5282v0v0z" fill="#404041" stroke="#000000" stroke-width="0.898" stroke-linecap="butt"/><g stroke="#231f20" stroke-width="0.898"><path d="M188.3349,177.4091v0v0c-1.0767,-4.1577 -2.0133,-10.6412 -1.1504,-15.6835c0.8872,-5.202 3.9476,-8.5731 7.3151,-9.3903c6.3048,-1.5364 13.9261,7.5531 17.0286,20.2947c2.9203,12.0115 0.7912,22.9805 -4.7423,25.494c0,0 -1.8121,0.2299 -5.4688,-1.778c-3.6539,-2.0052 -6.813,-5.449 -8.1016,-7.6752c-1.2923,-2.2261 -3.8021,-7.095 -4.8806,-11.2617z" fill="#404041" stroke-linecap="butt"/><path d="M192.251,166.8128c2.4246,-1.039 6.541,3.1394 9.1946,9.3355c2.6508,6.1926 2.8367,12.0628 0.4139,13.099c-2.4272,1.0363 -6.5409,-3.1429 -9.1927,-9.3373c-2.6554,-6.1943 -2.8395,-12.0582 -0.4158,-13.0972v0v0zM202.9183,188.2353c-9.9884,-6.33 -9.8762,-21.5788 -9.8762,-21.5788" fill="#929497" stroke-linecap="round"/></g><path d="M218.8424,195.9697v0v0l-0.0566,-0.0691c0.2981,-0.1608 0.5927,-0.3314 0.8836,-0.5047c9.6957,-5.837 7.7874,-25.362 3.0487,-34.1237l0.0386,-0.1545c0,0 5.6143,-14.3311 31.1119,-14.8357c13.3927,-0.2667 23.7358,5.0907 27.5172,14.613c2.9167,7.3438 7.4677,12.8305 6.356,21.2726c-1.1602,8.785 -6.7727,17.1768 -21.2339,20.599c-14.4613,3.4331 -13.8812,1.5949 -18.7268,3.6764c-4.8483,2.095 -5.097,3.0119 -5.097,3.0119c0,0 1.5526,-3.037 -4.6588,-4.5897c-9.3786,-2.3356 -18.0146,-8.0954 -19.1829,-8.8955z" fill="#e6e7e8" stroke="#000000" stroke-width="0.898" stroke-linecap="round"/><path d="M257.6339,194.0471c-11.418,0.7678 -12.6931,-14.0805 -12.6931,-14.0805c0,0 6.5266,-0.2057 14.947,-0.7292c8.4205,-0.519 10.4392,0 10.4392,0c0,0 -1.2769,14.0383 -12.6931,14.8097v0v0z" fill="#ffffff" stroke="#000000" stroke-width="0.97917" stroke-linecap="round"/><path d="M274.9445,170.728c-0.1419,0 -0.2838,-0.0188 -0.4301,-0.0592c-0.8064,-0.2362 -1.2734,-1.0848 -1.0327,-1.893c0.1086,-0.3772 0.1311,-0.7669 0.07,-1.1566c-0.2317,-1.4647 -1.6487,-2.4632 -3.1268,-2.2297c-1.4943,0.2352 -2.5207,1.6199 -2.2908,3.0873c0.1311,0.8324 -0.4382,1.6137 -1.2715,1.7439c-0.8388,0.1311 -1.6137,-0.4365 -1.743,-1.2716c-0.4948,-3.1268 1.6711,-6.0794 4.8321,-6.5787c3.1537,-0.4885 6.1207,1.6451 6.6209,4.7701c0.1311,0.8397 0.079,1.6766 -0.1617,2.4902c-0.1966,0.6654 -0.8055,1.0973 -1.4664,1.0973v0v0v0z" fill="#000000" stroke="none" stroke-width="0.898" stroke-linecap="butt"/><path d="M245.8405,170.728c-0.14,0 -0.2837,-0.0188 -0.4301,-0.0592c-0.8082,-0.2362 -1.2734,-1.0848 -1.0345,-1.893c0.1087,-0.3772 0.1311,-0.7669 0.0719,-1.1566c-0.2317,-1.4647 -1.6452,-2.4632 -3.1287,-2.2297c-1.4933,0.2352 -2.5197,1.6199 -2.2898,3.0873c0.1302,0.8324 -0.4383,1.6137 -1.2716,1.7439c-0.8396,0.1311 -1.6137,-0.4365 -1.7448,-1.2716c-0.493,-3.1268 1.673,-6.0794 4.8312,-6.5787c3.1484,-0.4885 6.1243,1.6451 6.6227,4.7701c0.1311,0.8397 0.079,1.6766 -0.1616,2.4902c-0.1949,0.6654 -0.8037,1.0973 -1.4647,1.0973v0v0v0z" fill="#000000" stroke="none" stroke-width="0.898" stroke-linecap="butt"/></g></g></g></svg>